<svg xmlns="http://www.w3.org/2000/svg" width="22" height="22"><path fill="#808285" fill-rule="evenodd" d="M11.58 11.58l-.88-1.74-2.6-.58.57 2.32h2.9zm1.74 0h2.6l.87-2.32-2.6.58-.87 1.74zM15.63 15s-1.59.63-3.18.63c-1.69 0-3.19-.63-3.19-.63s.89 2.3 3.19 2.37c2.21-.07 3.18-2.37 3.18-2.37zm-8.61-.62c.88 3.8 3.13 5.3 5.43 5.3s4.3-1.5 5.2-5.3c.88-3.78.88-9.17.88-9.17s-3.48 1.45-6.08 1.45-6.08-.87-6.08-.87-.24 4.8.65 8.6zM3.47 2.9s3.72.87 6.37.87c2.66 0 6.37-.87 6.37-.87v1.74c-1.24.35-3.49.58-5.79.58s-5.5-.87-5.5-.87-.03 5.1.86 8.9a9.51 9.51 0 0 0 1.17 2.97c-1.07-.78-2.08-2.13-2.6-4.34-.91-3.81-.89-8.99-.89-8.99z"/></svg>