<svg xmlns="http://www.w3.org/2000/svg" width="12" height="13" xmlns:xlink="http://www.w3.org/1999/xlink"><defs><path id="a" d="M2.98 2.9c.41-.35.89-.62 1.41-.81L4.78.55a.72.72 0 0 1 .7-.55h1.04c.33 0 .62.23.7.55l.39 1.54c.52.19 1 .47 1.41.81l1.54-.43a.7.7 0 0 1 .82.33l.52.9a.72.72 0 0 1-.12.88l-1.14 1.1a4.71 4.71 0 0 1 0 1.64l1.14 1.1a.72.72 0 0 1 .12.88l-.52.9a.72.72 0 0 1-.82.33l-1.53-.43c-.42.35-.9.62-1.42.81l-.39 1.54a.72.72 0 0 1-.7.55H5.48a.72.72 0 0 1-.7-.55l-.39-1.54c-.52-.19-1-.46-1.41-.81l-1.54.43a.72.72 0 0 1-.82-.33L.1 9.3a.72.72 0 0 1 .12-.88l1.15-1.1a4.71 4.71 0 0 1 0-1.64L.22 4.58A.72.72 0 0 1 .1 3.7l.52-.9a.72.72 0 0 1 .82-.33l1.53.43zM6 8.3a1.8 1.8 0 1 0 0-3.6 1.8 1.8 0 0 0 0 3.62z"/></defs><use fill="#666" fill-rule="evenodd" xlink:href="#a"/></svg>