<svg xmlns="http://www.w3.org/2000/svg" viewBox=".01 -1.02 45.99 20.02"><path fill="red" d="M8.77 1H6.52C4.3 1 2.44 2.67 2.44 5.95c0 1.97.9 3.42 2.52 4.14l-3.02 5.48c-.1.18 0 .32.16.32h1.4c.12 0 .2-.04.24-.14l2.74-5.39h.99v5.4c0 .05.06.13.13.13h1.23c.12 0 .16-.06.16-.16V1.2c0-.14-.09-.2-.22-.2zm-1.3 8.1h-.84c-1.3 0-2.56-.95-2.56-3.34 0-2.48 1.18-3.5 2.39-3.5h1V9.1z"/><path d="M16.18 5.93h-1.22c-.1 0-.16.08-.16.14v3.8h-2.27v-3.8c0-.1-.04-.14-.14-.14h-1.22c-.1 0-.16.06-.16.14v9.66c0 .1.04.16.14.16h1.24c.08 0 .14-.06.14-.16v-4.6h2.27v4.6c0 .1.06.16.16.16h1.22c.1 0 .14-.08.14-.16V6.07a.13.13 0 0 0-.14-.14zm27.92 9.33l-.16-.68-.1-.08c-.1 0-.63.22-1.4.22-1.5 0-2.22-1.45-2.22-3.75 0-2.03.6-4.04 1.63-4.04.28 0 .62.08 1.15.58.06.06.1.08.15.08.06 0 .12-.04.18-.14l.53-.88.07-.18c0-.08-.08-.14-.2-.2a3.79 3.79 0 0 0-1.84-.5c-1.85 0-3.3 2.23-3.3 5.71 0 3 1.39 4.73 3.36 4.73.83 0 1.72-.4 2.07-.65.08-.06.1-.14.08-.22zm-8.57-4.83l2.36-4.36c.05-.06.02-.14-.05-.14h-1.17c-.33 0-.45.12-.57.38l-1.77 3.72c-.1.22-.2.36-.3.42V6.07c0-.08-.04-.14-.12-.14h-1.28c-.06 0-.12.06-.12.14v9.68c0 .06.04.14.12.14h1.28c.08 0 .12-.06.12-.14v-4.99c.06.04.1.1.14.18l2.25 4.65c.11.24.3.3.55.3h1.26c.08 0 .1-.08.06-.14l-2.76-5.33zm-11.3 4.21h-.24c-.3 0-.37-.12-.37-.36v-8.2c0-.1-.04-.15-.12-.15h-3.94c-.1 0-.16.06-.16.14v.72c0 2.4-.14 5.5-1.4 7.85h-.44c-.11 0-.15.06-.15.16v2.9c0 .1.07.14.13.14h.95c.22 0 .3-.16.3-.3V15.9H23v1.81c0 .08.07.14.14.14h1c.13 0 .25-.1.25-.3V14.8c0-.1-.06-.16-.16-.16zm-2.13 0h-2.86c1-1.73 1.4-3.68 1.54-6.06.04-.52.06-1.05.06-1.4h1.26v7.46zm6.15-8.95c-2.13 0-3.08 2.7-3.08 5.65 0 3 1.35 4.79 3.32 4.79.96 0 1.81-.38 2.24-.66.08-.04.1-.1.08-.17l-.15-.68c-.03-.08-.06-.12-.16-.12-.08 0-.65.22-1.46.22-1.52 0-2.23-1.33-2.23-3.08v-.47s.77.09 1.23.09h2.87v-.84c0-3.08-1.08-4.73-2.66-4.73zm-.21 4.32c-.46 0-1.17.08-1.17.08s0-.3.04-.62c.18-1.69.6-2.54 1.28-2.54.64 0 1.03.87 1.13 2.4.02.32.02.68.02.68h-1.3z"/></svg>