<svg xmlns="http://www.w3.org/2000/svg" width="16" height="18"><g fill="none" fill-rule="evenodd"><path fill="#999898" d="M.17 8.2c.2 1.04 1.1 1.64 2.94 1.64 1-.59 1-6.06 3.8-7.22.4-.17.78-.3 1.17-.42a7 7 0 0 0 .5-.16S7.97 2 7.28 2h-.18c-.62 0-.8.08-1.45.15A6.48 6.48 0 0 0 .43 6.27c-.12.36-.2.7-.25 1v.92z"/><path fill="#bfbfbf" d="M9.53 16.03a7.01 7.01 0 1 0-1.44 0h1.44z"/><path fill="#242726" d="M7.93 1.97l.9.02a7.06 7.06 0 0 1 6.96 7.58c-1.02-.08-2.43-1.42-2.76-2.5a6.92 6.92 0 0 0-6.55-5.02c.6-.06 1.05-.08 1.45-.08z"/></g></svg>