<svg version="1.1" id="Layer_1" xmlns="http://www.w3.org/2000/svg" xmlns:xlink="http://www.w3.org/1999/xlink" x="0px" y="0px" width="30px" height="30px" viewBox="-455 257 48 48" enable-background="new -455 257 48 48" xml:space="preserve"> <path style="fill:#111111;" d="M-431,257.013c13.248,0,23.987,10.74,23.987,23.987s-10.74,23.987-23.987,23.987s-23.987-10.74-23.987-23.987 S-444.248,257.013-431,257.013z M-419.185,275.093c-0.25-1.337-1.363-2.335-2.642-2.458c-3.054-0.196-6.119-0.355-9.178-0.357 c-3.059-0.002-6.113,0.154-9.167,0.347c-1.284,0.124-2.397,1.117-2.646,2.459c-0.284,1.933-0.426,3.885-0.426,5.836 s0.142,3.903,0.426,5.836c0.249,1.342,1.362,2.454,2.646,2.577c3.055,0.193,6.107,0.39,9.167,0.39c3.058,0,6.126-0.172,9.178-0.37 c1.279-0.124,2.392-1.269,2.642-2.606c0.286-1.93,0.429-3.879,0.429-5.828C-418.756,278.971-418.899,277.023-419.185,275.093z M-433.776,284.435v-7.115l6.627,3.558L-433.776,284.435z"></path> </svg>